<mxfile host="app.diagrams.net" modified="2022-05-22T06:17:52.713Z" agent="5.0 (Macintosh; Intel Mac OS X 10_15_7) AppleWebKit/537.36 (KHTML, like Gecko) Chrome/101.0.4951.64 Safari/537.36" etag="u243LrNPZjtplHcUo6Fc" version="18.0.5" type="github">
  <diagram id="3228e29e-7158-1315-38df-8450db1d8a1d" name="Page-1">
    <mxGraphModel dx="700" dy="-744" grid="0" gridSize="10" guides="1" tooltips="1" connect="1" arrows="1" fold="1" page="1" pageScale="1" pageWidth="750" pageHeight="370" background="#EFF1F3" math="0" shadow="0">
      <root>
        <mxCell id="0" />
        <mxCell id="1" parent="0" />
        <mxCell id="1rv8f1VLO6d1HnzpvZRe-15" value="" style="rounded=1;whiteSpace=wrap;html=1;fillColor=#4A919B;strokeColor=none;" vertex="1" parent="1">
          <mxGeometry x="321.00000000000006" y="1717" width="85" height="99" as="geometry" />
        </mxCell>
        <mxCell id="n8PQSL9Bu4Ly_2OT7yPN-3" value="" style="rounded=1;whiteSpace=wrap;html=1;fillColor=#4A919B;strokeColor=none;" parent="1" vertex="1">
          <mxGeometry x="34" y="1600" width="188.5" height="131" as="geometry" />
        </mxCell>
        <mxCell id="n8PQSL9Bu4Ly_2OT7yPN-6" value="" style="shadow=0;dashed=0;html=1;strokeColor=none;fillColor=#4A919B;labelPosition=center;verticalLabelPosition=bottom;verticalAlign=top;align=center;outlineConnect=0;shape=mxgraph.veeam.table;fontSize=22;" parent="1" vertex="1">
          <mxGeometry x="570" y="1557.35" width="145.8" height="98.15" as="geometry" />
        </mxCell>
        <mxCell id="n8PQSL9Bu4Ly_2OT7yPN-7" value="&lt;font color=&quot;#ffffff&quot; style=&quot;font-size: 22px;&quot;&gt;orm&lt;/font&gt;" style="rounded=1;whiteSpace=wrap;html=1;fillColor=#9AC7BF;strokeColor=none;" parent="1" vertex="1">
          <mxGeometry x="171.5" y="1615" width="44" height="102" as="geometry" />
        </mxCell>
        <mxCell id="n8PQSL9Bu4Ly_2OT7yPN-8" value="&lt;font color=&quot;#ffffff&quot;&gt;go/java&lt;/font&gt;" style="text;html=1;strokeColor=none;fillColor=none;align=center;verticalAlign=middle;whiteSpace=wrap;rounded=0;fontSize=22;" parent="1" vertex="1">
          <mxGeometry x="65.5" y="1650.5" width="60" height="30" as="geometry" />
        </mxCell>
        <mxCell id="n8PQSL9Bu4Ly_2OT7yPN-12" value="" style="shape=curlyBracket;whiteSpace=wrap;html=1;rounded=1;fontSize=22;fontColor=#FFFFFF;strokeColor=#4A919B;fillColor=none;strokeWidth=3;" parent="1" vertex="1">
          <mxGeometry x="253" y="1571.85" width="43" height="197" as="geometry" />
        </mxCell>
        <mxCell id="n8PQSL9Bu4Ly_2OT7yPN-13" value="&lt;span style=&quot;font-size: 15px;&quot;&gt;&lt;b&gt;id&lt;/b&gt;&lt;/span&gt;" style="text;strokeColor=none;fillColor=none;html=1;fontSize=15;fontStyle=0;verticalAlign=middle;align=center;fontColor=#FFFFFF;" parent="1" vertex="1">
          <mxGeometry x="570.8" y="1564.5" width="44" height="20" as="geometry" />
        </mxCell>
        <mxCell id="n8PQSL9Bu4Ly_2OT7yPN-14" value="&lt;font color=&quot;#5c5c5c&quot;&gt;&lt;span style=&quot;font-size: 15px;&quot;&gt;user0&lt;/span&gt;&lt;span style=&quot;font-family: monospace; font-size: 0px; font-weight: 400; text-align: start;&quot;&gt;%3CmxGraphModel%3E%3Croot%3E%3CmxCell%20id%3D%220%22%2F%3E%3CmxCell%20id%3D%221%22%20parent%3D%220%22%2F%3E%3CmxCell%20id%3D%222%22%20value%3D%22%26lt%3Bspan%20style%3D%26quot%3Bfont-size%3A%2015px%3B%26quot%3B%26gt%3Buser0%26lt%3B%2Fspan%26gt%3B%22%20style%3D%22text%3BstrokeColor%3Dnone%3BfillColor%3Dnone%3Bhtml%3D1%3BfontSize%3D24%3BfontStyle%3D1%3BverticalAlign%3Dmiddle%3Balign%3Dcenter%3BfontColor%3D%23FFFFFF%3B%22%20vertex%3D%221%22%20parent%3D%221%22%3E%3CmxGeometry%20x%3D%22328.1%22%20y%3D%221315%22%20width%3D%22100%22%20height%3D%2240%22%20as%3D%22geometry%22%2F%3E%3C%2FmxCell%3E%3C%2Froot%3E%3C%2FmxGraphModel%3E00&lt;/span&gt;&lt;/font&gt;" style="text;strokeColor=none;fillColor=none;html=1;fontSize=24;fontStyle=1;verticalAlign=middle;align=center;fontColor=#FFFFFF;" parent="1" vertex="1">
          <mxGeometry x="592.9000000000001" y="1523.5" width="100" height="40" as="geometry" />
        </mxCell>
        <mxCell id="ciUMH-6V0TxtmrVo0y8t-1" value="&lt;font color=&quot;#4a919b&quot; style=&quot;font-size: 22px;&quot;&gt;&lt;b&gt;·····&lt;/b&gt;&lt;/font&gt;" style="text;html=1;strokeColor=none;fillColor=none;align=center;verticalAlign=middle;whiteSpace=wrap;rounded=0;" parent="1" vertex="1">
          <mxGeometry x="612.9000000000001" y="1659.85" width="60" height="30" as="geometry" />
        </mxCell>
        <mxCell id="ciUMH-6V0TxtmrVo0y8t-5" style="edgeStyle=orthogonalEdgeStyle;rounded=0;orthogonalLoop=1;jettySize=auto;html=1;exitX=0.5;exitY=1;exitDx=0;exitDy=0;fontSize=15;fontColor=#4A919B;" parent="1" edge="1">
          <mxGeometry relative="1" as="geometry">
            <mxPoint x="588.3000000000002" y="1606.35" as="sourcePoint" />
            <mxPoint x="588.3000000000002" y="1606.35" as="targetPoint" />
          </mxGeometry>
        </mxCell>
        <mxCell id="ciUMH-6V0TxtmrVo0y8t-9" value="&lt;span style=&quot;font-size: 15px;&quot;&gt;name&lt;/span&gt;" style="text;strokeColor=none;fillColor=none;html=1;fontSize=15;fontStyle=0;verticalAlign=middle;align=center;fontColor=#FFFFFF;" parent="1" vertex="1">
          <mxGeometry x="604.8" y="1563.5" width="44" height="20" as="geometry" />
        </mxCell>
        <mxCell id="ciUMH-6V0TxtmrVo0y8t-10" value="&lt;span style=&quot;font-size: 15px;&quot;&gt;xx&lt;/span&gt;" style="text;strokeColor=none;fillColor=none;html=1;fontSize=15;fontStyle=0;verticalAlign=middle;align=center;fontColor=#FFFFFF;" parent="1" vertex="1">
          <mxGeometry x="639.8" y="1563.5" width="44" height="20" as="geometry" />
        </mxCell>
        <mxCell id="ciUMH-6V0TxtmrVo0y8t-11" value="yy" style="text;strokeColor=none;fillColor=none;html=1;fontSize=15;fontStyle=0;verticalAlign=middle;align=center;fontColor=#FFFFFF;" parent="1" vertex="1">
          <mxGeometry x="668.8" y="1563.5" width="44" height="20" as="geometry" />
        </mxCell>
        <mxCell id="ciUMH-6V0TxtmrVo0y8t-19" value="" style="shadow=0;dashed=0;html=1;strokeColor=none;fillColor=#4A919B;labelPosition=center;verticalLabelPosition=bottom;verticalAlign=top;align=center;outlineConnect=0;shape=mxgraph.veeam.table;fontSize=22;" parent="1" vertex="1">
          <mxGeometry x="570" y="1709.35" width="145.8" height="98.15" as="geometry" />
        </mxCell>
        <mxCell id="ciUMH-6V0TxtmrVo0y8t-20" value="&lt;span style=&quot;font-size: 15px;&quot;&gt;&lt;b&gt;id&lt;/b&gt;&lt;/span&gt;" style="text;strokeColor=none;fillColor=none;html=1;fontSize=15;fontStyle=0;verticalAlign=middle;align=center;fontColor=#FFFFFF;" parent="1" vertex="1">
          <mxGeometry x="570.8" y="1716.5" width="44" height="20" as="geometry" />
        </mxCell>
        <mxCell id="ciUMH-6V0TxtmrVo0y8t-21" value="&lt;font color=&quot;#5c5c5c&quot;&gt;&lt;span style=&quot;font-size: 15px;&quot;&gt;userX&lt;/span&gt;&lt;span style=&quot;font-family: monospace; font-size: 0px; font-weight: 400; text-align: start;&quot;&gt;%3CmxGraphModel%3E%3Croot%3E%3CmxCell%20id%3D%220%22%2F%3E%3CmxCell%20id%3D%221%22%20parent%3D%220%22%2F%3E%3CmxCell%20id%3D%222%22%20value%3D%22%26lt%3Bspan%20style%3D%26quot%3Bfont-size%3A%2015px%3B%26quot%3B%26gt%3Buser0%26lt%3B%2Fspan%26gt%3B%22%20style%3D%22text%3BstrokeColor%3Dnone%3BfillColor%3Dnone%3Bhtml%3D1%3BfontSize%3D24%3BfontStyle%3D1%3BverticalAlign%3Dmiddle%3Balign%3Dcenter%3BfontColor%3D%23FFFFFF%3B%22%20vertex%3D%221%22%20parent%3D%221%22%3E%3CmxGeometry%20x%3D%22328.1%22%20y%3D%221315%22%20width%3D%22100%22%20height%3D%2240%22%20as%3D%22geometry%22%2F%3E%3C%2FmxCell%3E%3C%2Froot%3E%3C%2FmxGraphModel%3E0&lt;/span&gt;&lt;/font&gt;" style="text;strokeColor=none;fillColor=none;html=1;fontSize=24;fontStyle=1;verticalAlign=middle;align=center;fontColor=#FFFFFF;" parent="1" vertex="1">
          <mxGeometry x="592.9000000000001" y="1685.5" width="100" height="23" as="geometry" />
        </mxCell>
        <mxCell id="ciUMH-6V0TxtmrVo0y8t-22" style="edgeStyle=orthogonalEdgeStyle;rounded=0;orthogonalLoop=1;jettySize=auto;html=1;exitX=0.5;exitY=1;exitDx=0;exitDy=0;fontSize=15;fontColor=#4A919B;" parent="1" edge="1">
          <mxGeometry relative="1" as="geometry">
            <mxPoint x="588.3000000000002" y="1758.35" as="sourcePoint" />
            <mxPoint x="588.3000000000002" y="1758.35" as="targetPoint" />
          </mxGeometry>
        </mxCell>
        <mxCell id="ciUMH-6V0TxtmrVo0y8t-23" value="&lt;span style=&quot;font-size: 15px;&quot;&gt;name&lt;/span&gt;" style="text;strokeColor=none;fillColor=none;html=1;fontSize=15;fontStyle=0;verticalAlign=middle;align=center;fontColor=#FFFFFF;" parent="1" vertex="1">
          <mxGeometry x="604.8" y="1715.5" width="44" height="20" as="geometry" />
        </mxCell>
        <mxCell id="ciUMH-6V0TxtmrVo0y8t-24" value="&lt;span style=&quot;font-size: 15px;&quot;&gt;xx&lt;/span&gt;" style="text;strokeColor=none;fillColor=none;html=1;fontSize=15;fontStyle=0;verticalAlign=middle;align=center;fontColor=#FFFFFF;" parent="1" vertex="1">
          <mxGeometry x="639.8" y="1715.5" width="44" height="20" as="geometry" />
        </mxCell>
        <mxCell id="ciUMH-6V0TxtmrVo0y8t-25" value="&lt;span style=&quot;font-size: 15px;&quot;&gt;yy&lt;/span&gt;" style="text;strokeColor=none;fillColor=none;html=1;fontSize=15;fontStyle=0;verticalAlign=middle;align=center;fontColor=#FFFFFF;" parent="1" vertex="1">
          <mxGeometry x="668.8" y="1715.5" width="44" height="20" as="geometry" />
        </mxCell>
        <mxCell id="1rv8f1VLO6d1HnzpvZRe-9" value="&lt;span style=&quot;font-size: 15px;&quot;&gt;id&lt;/span&gt;" style="text;strokeColor=none;fillColor=none;html=1;fontSize=15;fontStyle=0;verticalAlign=middle;align=center;fontColor=#FFFFFF;" vertex="1" parent="1">
          <mxGeometry x="358.20000000000005" y="1728" width="44" height="20" as="geometry" />
        </mxCell>
        <mxCell id="1rv8f1VLO6d1HnzpvZRe-10" value="&lt;font color=&quot;#5c5c5c&quot;&gt;&lt;span style=&quot;font-size: 15px;&quot;&gt;nameX&lt;/span&gt;&lt;/font&gt;" style="text;strokeColor=none;fillColor=none;html=1;fontSize=24;fontStyle=1;verticalAlign=middle;align=center;fontColor=#FFFFFF;" vertex="1" parent="1">
          <mxGeometry x="315.0000000000001" y="1680.5" width="100" height="40" as="geometry" />
        </mxCell>
        <mxCell id="1rv8f1VLO6d1HnzpvZRe-11" style="edgeStyle=orthogonalEdgeStyle;rounded=0;orthogonalLoop=1;jettySize=auto;html=1;exitX=0.5;exitY=1;exitDx=0;exitDy=0;fontSize=15;fontColor=#4A919B;" edge="1" parent="1">
          <mxGeometry relative="1" as="geometry">
            <mxPoint x="339.30000000000024" y="1738.85" as="sourcePoint" />
            <mxPoint x="339.30000000000024" y="1738.85" as="targetPoint" />
          </mxGeometry>
        </mxCell>
        <mxCell id="1rv8f1VLO6d1HnzpvZRe-12" value="&lt;span style=&quot;font-size: 15px;&quot;&gt;&lt;b&gt;name&lt;/b&gt;&lt;/span&gt;" style="text;strokeColor=none;fillColor=none;html=1;fontSize=15;fontStyle=0;verticalAlign=middle;align=center;fontColor=#FFFFFF;" vertex="1" parent="1">
          <mxGeometry x="329.70000000000005" y="1728" width="32.9" height="17" as="geometry" />
        </mxCell>
        <mxCell id="1rv8f1VLO6d1HnzpvZRe-16" value="" style="rounded=1;whiteSpace=wrap;html=1;fillColor=#FFFFFF;strokeColor=none;" vertex="1" parent="1">
          <mxGeometry x="328.80000000000007" y="1748" width="34.2" height="19" as="geometry" />
        </mxCell>
        <mxCell id="1rv8f1VLO6d1HnzpvZRe-21" value="" style="rounded=1;whiteSpace=wrap;html=1;fillColor=#FFFFFF;strokeColor=none;" vertex="1" parent="1">
          <mxGeometry x="365.00000000000006" y="1748" width="34.2" height="19" as="geometry" />
        </mxCell>
        <mxCell id="1rv8f1VLO6d1HnzpvZRe-22" value="" style="rounded=1;whiteSpace=wrap;html=1;fillColor=#FFFFFF;strokeColor=none;" vertex="1" parent="1">
          <mxGeometry x="328.80000000000007" y="1769" width="34.2" height="19" as="geometry" />
        </mxCell>
        <mxCell id="1rv8f1VLO6d1HnzpvZRe-23" value="" style="rounded=1;whiteSpace=wrap;html=1;fillColor=#FFFFFF;strokeColor=none;" vertex="1" parent="1">
          <mxGeometry x="365.00000000000006" y="1769" width="34.2" height="19" as="geometry" />
        </mxCell>
        <mxCell id="1rv8f1VLO6d1HnzpvZRe-24" value="" style="rounded=1;whiteSpace=wrap;html=1;fillColor=#FFFFFF;strokeColor=none;" vertex="1" parent="1">
          <mxGeometry x="328.80000000000007" y="1790" width="34.2" height="19" as="geometry" />
        </mxCell>
        <mxCell id="1rv8f1VLO6d1HnzpvZRe-25" value="" style="rounded=1;whiteSpace=wrap;html=1;fillColor=#FFFFFF;strokeColor=none;" vertex="1" parent="1">
          <mxGeometry x="365.00000000000006" y="1790" width="34.2" height="19" as="geometry" />
        </mxCell>
        <mxCell id="1rv8f1VLO6d1HnzpvZRe-38" value="" style="rounded=1;whiteSpace=wrap;html=1;fillColor=#4A919B;strokeColor=none;" vertex="1" parent="1">
          <mxGeometry x="324.8" y="1554" width="85" height="99" as="geometry" />
        </mxCell>
        <mxCell id="1rv8f1VLO6d1HnzpvZRe-39" value="&lt;span style=&quot;font-size: 15px;&quot;&gt;id&lt;/span&gt;" style="text;strokeColor=none;fillColor=none;html=1;fontSize=15;fontStyle=0;verticalAlign=middle;align=center;fontColor=#FFFFFF;" vertex="1" parent="1">
          <mxGeometry x="362" y="1565" width="44" height="20" as="geometry" />
        </mxCell>
        <mxCell id="1rv8f1VLO6d1HnzpvZRe-40" value="&lt;font color=&quot;#5c5c5c&quot;&gt;&lt;span style=&quot;font-size: 15px;&quot;&gt;name0&lt;/span&gt;&lt;/font&gt;" style="text;strokeColor=none;fillColor=none;html=1;fontSize=24;fontStyle=1;verticalAlign=middle;align=center;fontColor=#FFFFFF;" vertex="1" parent="1">
          <mxGeometry x="315.0000000000001" y="1514" width="100" height="40" as="geometry" />
        </mxCell>
        <mxCell id="1rv8f1VLO6d1HnzpvZRe-41" style="edgeStyle=orthogonalEdgeStyle;rounded=0;orthogonalLoop=1;jettySize=auto;html=1;exitX=0.5;exitY=1;exitDx=0;exitDy=0;fontSize=15;fontColor=#4A919B;" edge="1" parent="1">
          <mxGeometry relative="1" as="geometry">
            <mxPoint x="343.10000000000014" y="1575.85" as="sourcePoint" />
            <mxPoint x="343.10000000000014" y="1575.85" as="targetPoint" />
          </mxGeometry>
        </mxCell>
        <mxCell id="1rv8f1VLO6d1HnzpvZRe-42" value="&lt;span style=&quot;font-size: 15px;&quot;&gt;&lt;b&gt;name&lt;/b&gt;&lt;/span&gt;" style="text;strokeColor=none;fillColor=none;html=1;fontSize=15;fontStyle=0;verticalAlign=middle;align=center;fontColor=#FFFFFF;" vertex="1" parent="1">
          <mxGeometry x="333.5" y="1565" width="32.9" height="17" as="geometry" />
        </mxCell>
        <mxCell id="1rv8f1VLO6d1HnzpvZRe-43" value="" style="rounded=1;whiteSpace=wrap;html=1;fillColor=#FFFFFF;strokeColor=none;" vertex="1" parent="1">
          <mxGeometry x="332.6" y="1585" width="34.2" height="19" as="geometry" />
        </mxCell>
        <mxCell id="1rv8f1VLO6d1HnzpvZRe-44" value="" style="rounded=1;whiteSpace=wrap;html=1;fillColor=#FFFFFF;strokeColor=none;" vertex="1" parent="1">
          <mxGeometry x="368.8" y="1585" width="34.2" height="19" as="geometry" />
        </mxCell>
        <mxCell id="1rv8f1VLO6d1HnzpvZRe-45" value="" style="rounded=1;whiteSpace=wrap;html=1;fillColor=#FFFFFF;strokeColor=none;" vertex="1" parent="1">
          <mxGeometry x="332.6" y="1606" width="34.2" height="19" as="geometry" />
        </mxCell>
        <mxCell id="1rv8f1VLO6d1HnzpvZRe-46" value="" style="rounded=1;whiteSpace=wrap;html=1;fillColor=#FFFFFF;strokeColor=none;" vertex="1" parent="1">
          <mxGeometry x="368.8" y="1606" width="34.2" height="19" as="geometry" />
        </mxCell>
        <mxCell id="1rv8f1VLO6d1HnzpvZRe-47" value="" style="rounded=1;whiteSpace=wrap;html=1;fillColor=#FFFFFF;strokeColor=none;" vertex="1" parent="1">
          <mxGeometry x="332.6" y="1627" width="34.2" height="19" as="geometry" />
        </mxCell>
        <mxCell id="1rv8f1VLO6d1HnzpvZRe-48" value="" style="rounded=1;whiteSpace=wrap;html=1;fillColor=#FFFFFF;strokeColor=none;" vertex="1" parent="1">
          <mxGeometry x="368.8" y="1627" width="34.2" height="19" as="geometry" />
        </mxCell>
        <mxCell id="1rv8f1VLO6d1HnzpvZRe-49" value="&lt;font color=&quot;#4a919b&quot; style=&quot;font-size: 22px;&quot;&gt;&lt;b&gt;·····&lt;/b&gt;&lt;/font&gt;" style="text;html=1;strokeColor=none;fillColor=none;align=center;verticalAlign=middle;whiteSpace=wrap;rounded=0;" vertex="1" parent="1">
          <mxGeometry x="332.6000000000001" y="1663" width="60" height="30" as="geometry" />
        </mxCell>
        <mxCell id="1rv8f1VLO6d1HnzpvZRe-50" value="1.先查 name = &quot;xxx&quot; 对应的ids" style="text;html=1;strokeColor=none;fillColor=none;align=center;verticalAlign=middle;whiteSpace=wrap;rounded=0;" vertex="1" parent="1">
          <mxGeometry x="92" y="1565" width="187" height="36" as="geometry" />
        </mxCell>
        <mxCell id="1rv8f1VLO6d1HnzpvZRe-52" value="" style="shape=flexArrow;endArrow=classic;html=1;rounded=0;strokeColor=none;fillColor=#FDD276;" edge="1" parent="1">
          <mxGeometry width="50" height="50" relative="1" as="geometry">
            <mxPoint x="422" y="1679.5900000000001" as="sourcePoint" />
            <mxPoint x="510" y="1679.5900000000001" as="targetPoint" />
          </mxGeometry>
        </mxCell>
        <mxCell id="1rv8f1VLO6d1HnzpvZRe-53" value="2.根据ids得到具体&lt;br&gt;要读哪个分表" style="text;html=1;strokeColor=none;fillColor=none;align=center;verticalAlign=middle;whiteSpace=wrap;rounded=0;" vertex="1" parent="1">
          <mxGeometry x="384" y="1625" width="187" height="36" as="geometry" />
        </mxCell>
        <mxCell id="1rv8f1VLO6d1HnzpvZRe-54" value="" style="shape=curlyBracket;whiteSpace=wrap;html=1;rounded=1;fontSize=22;fontColor=#FFFFFF;strokeColor=#4A919B;fillColor=none;strokeWidth=3;" vertex="1" parent="1">
          <mxGeometry x="518" y="1571.85" width="43" height="197" as="geometry" />
        </mxCell>
      </root>
    </mxGraphModel>
  </diagram>
</mxfile>
